<svg width="24" height="24" viewBox="0 0 24 24" fill="none" xmlns="http://www.w3.org/2000/svg">
<path d="M21.1062 8.05526C20.6036 6.84737 19.8167 5.72632 18.9062 4.81842C17.9957 3.90789 16.8325 3.22632 15.6246 2.72368C14.4588 2.24211 13.1641 2 11.8246 2C10.4851 2 9.10881 2.04737 7.94566 2.53158C6.73776 3.03158 5.72723 3.98158 4.81671 4.89211C3.90618 5.8 2.85092 6.76579 2.35092 7.97368C1.86671 9.13947 2.0246 10.5579 2.0246 11.8974C2.0246 13.2368 2.12197 14.5526 2.60618 15.7184C3.10618 16.9237 4.1246 17.7789 5.03513 18.6868C5.94566 19.5974 6.76934 20.6868 7.97723 21.1868C9.14302 21.6711 10.4851 22 11.8246 22C13.1641 22 14.4799 21.6026 15.643 21.1184C16.8509 20.6184 17.943 19.8368 18.8509 18.9263C19.7614 18.0158 20.4957 16.9053 20.9957 15.6974C21.4799 14.5316 22.0325 13.2368 22.0325 11.8974C22.0325 10.5579 21.5878 9.21842 21.1062 8.05526ZM14.6299 17.6079L12.5062 17.2921L13.1141 13.1868L8.66934 16.6079L7.36408 14.9L11.2614 11.8974L7.36408 8.89737L8.66934 7.18947L13.1141 10.6105L12.5062 6.50526L14.6299 6.18947L15.472 11.8974L14.6299 17.6079Z" fill="#6FC7BA"/>
</svg>
