<svg width="24" height="24" viewBox="0 0 24 24" fill="none" xmlns="http://www.w3.org/2000/svg">
<path d="M19.2494 16.4498L17.7494 14.8998C18.4161 14.7165 18.9577 14.3623 19.3744 13.8373C19.7911 13.3123 19.9994 12.6998 19.9994 11.9998C19.9994 11.1665 19.7077 10.4581 19.1244 9.87481C18.5411 9.29147 17.8327 8.99981 16.9994 8.99981H12.9994V6.9998H16.9994C18.3827 6.9998 19.5619 7.48731 20.5369 8.46231C21.5119 9.4373 21.9994 10.6165 21.9994 11.9998C21.9994 12.9498 21.7536 13.8248 21.2619 14.6248C20.7702 15.4248 20.0994 16.0331 19.2494 16.4498ZM15.8494 12.9998L13.8494 10.9998H15.9994V12.9998H15.8494ZM19.7994 22.5998L1.39941 4.1998L2.79941 2.7998L21.1994 21.1998L19.7994 22.5998ZM10.9994 16.9998H6.99941C5.61608 16.9998 4.43691 16.5123 3.46191 15.5373C2.48691 14.5623 1.99941 13.3831 1.99941 11.9998C1.99941 10.8498 2.34941 9.82481 3.04941 8.92481C3.74941 8.02481 4.64941 7.43314 5.74941 7.14981L7.59941 8.99981H6.99941C6.16608 8.99981 5.45775 9.29147 4.87441 9.87481C4.29108 10.4581 3.99941 11.1665 3.99941 11.9998C3.99941 12.8331 4.29108 13.5415 4.87441 14.1248C5.45775 14.7081 6.16608 14.9998 6.99941 14.9998H10.9994V16.9998ZM7.99941 12.9998V10.9998H9.62441L11.5994 12.9998H7.99941Z" fill="black"/>
</svg>
