<svg width="24" height="24" viewBox="0 0 24 24" fill="none" xmlns="http://www.w3.org/2000/svg">
<path d="M5.6498 10.0249L7.5998 10.8499C7.83314 10.3832 8.0748 9.93319 8.3248 9.49986C8.5748 9.06653 8.8498 8.63319 9.1498 8.19986L7.7498 7.92486L5.6498 10.0249ZM9.1998 12.0999L12.0498 14.9249C12.7498 14.6582 13.4998 14.2499 14.2998 13.6999C15.0998 13.1499 15.8498 12.5249 16.5498 11.8249C17.7165 10.6582 18.629 9.36236 19.2873 7.93736C19.9456 6.51236 20.2331 5.19986 20.1498 3.99986C18.9498 3.91653 17.6331 4.20403 16.1998 4.86236C14.7665 5.52069 13.4665 6.4332 12.2998 7.59986C11.5998 8.29986 10.9748 9.04986 10.4248 9.84986C9.8748 10.6499 9.46647 11.3999 9.1998 12.0999ZM13.6498 10.4749C13.2665 10.0915 13.0748 9.62069 13.0748 9.06236C13.0748 8.50403 13.2665 8.0332 13.6498 7.64986C14.0331 7.26653 14.5081 7.07486 15.0748 7.07486C15.6415 7.07486 16.1165 7.26653 16.4998 7.64986C16.8831 8.0332 17.0748 8.50403 17.0748 9.06236C17.0748 9.62069 16.8831 10.0915 16.4998 10.4749C16.1165 10.8582 15.6415 11.0499 15.0748 11.0499C14.5081 11.0499 14.0331 10.8582 13.6498 10.4749ZM14.1248 18.4999L16.2248 16.3999L15.9498 14.9999C15.5165 15.2999 15.0831 15.5707 14.6498 15.8124C14.2165 16.054 13.7665 16.2915 13.2998 16.5249L14.1248 18.4999ZM21.9498 2.17486C22.2665 4.19153 22.0706 6.15403 21.3623 8.06236C20.654 9.9707 19.4331 11.7915 17.6998 13.5249L18.1998 15.9999C18.2665 16.3332 18.2498 16.6582 18.1498 16.9749C18.0498 17.2915 17.8831 17.5665 17.6498 17.7999L13.4498 21.9999L11.3498 17.0749L7.0748 12.7999L2.1498 10.6999L6.3248 6.49986C6.55814 6.26653 6.83731 6.09986 7.1623 5.99986C7.4873 5.89986 7.81647 5.88319 8.1498 5.94986L10.6248 6.44986C12.3581 4.71653 14.1748 3.49153 16.0748 2.77486C17.9748 2.05819 19.9331 1.85819 21.9498 2.17486ZM3.9248 15.9749C4.50814 15.3915 5.22064 15.0957 6.0623 15.0874C6.90397 15.079 7.61647 15.3665 8.1998 15.9499C8.78314 16.5332 9.07064 17.2457 9.0623 18.0874C9.05397 18.929 8.75814 19.6415 8.1748 20.2249C7.75814 20.6415 7.0623 20.9999 6.0873 21.2999C5.1123 21.5999 3.76647 21.8665 2.0498 22.0999C2.28314 20.3832 2.5498 19.0374 2.8498 18.0624C3.1498 17.0874 3.50814 16.3915 3.9248 15.9749ZM5.3498 17.3749C5.18314 17.5415 5.01647 17.8457 4.8498 18.2874C4.68314 18.729 4.56647 19.1749 4.4998 19.6249C4.9498 19.5582 5.39564 19.4457 5.8373 19.2874C6.27897 19.129 6.58314 18.9665 6.7498 18.7999C6.9498 18.5999 7.05814 18.3582 7.0748 18.0749C7.09147 17.7915 6.9998 17.5499 6.7998 17.3499C6.5998 17.1499 6.35814 17.054 6.0748 17.0624C5.79147 17.0707 5.5498 17.1749 5.3498 17.3749Z" fill="black"/>
</svg>
