<svg width="16" height="16" viewBox="0 0 16 16" fill="none" xmlns="http://www.w3.org/2000/svg">
<g id="kaspa">
<path id="vector" d="M14.0708 5.37034C13.7357 4.56508 13.2111 3.81771 12.6041 3.21244C11.9971 2.60543 11.2216 2.15104 10.4164 1.81595C9.63919 1.4949 8.77603 1.3335 7.88305 1.3335C6.99006 1.3335 6.07252 1.36508 5.29708 1.68788C4.49182 2.02122 3.81814 2.65455 3.21112 3.26157C2.6041 3.86683 1.90059 4.51069 1.56726 5.31595C1.24445 6.09315 1.34971 7.03876 1.34971 7.93174C1.34971 8.82473 1.41463 9.70192 1.73743 10.4791C2.07077 11.2826 2.74971 11.8528 3.35673 12.4581C3.96375 13.0651 4.51287 13.7914 5.31814 14.1247C6.09533 14.4475 6.99006 14.6668 7.88305 14.6668C8.77603 14.6668 9.65322 14.4019 10.4287 14.0791C11.2339 13.7458 11.962 13.2247 12.5673 12.6177C13.1743 12.0107 13.6638 11.2703 13.9971 10.4651C14.3199 9.68788 14.6883 8.82473 14.6883 7.93174C14.6883 7.03876 14.3918 6.14578 14.0708 5.37034ZM9.75322 11.7388L8.33743 11.5282L8.7427 8.79139L5.77954 11.0721L4.90936 9.9335L7.50761 7.93174L4.90936 5.93174L5.77954 4.79315L8.7427 7.07385L8.33743 4.337L9.75322 4.12648L10.3146 7.93174L9.75322 11.7388Z" fill="#6FC7BA"/>
</g>
</svg>
