<svg width="24" height="24" viewBox="0 0 24 24" xmlns="http://www.w3.org/2000/svg">
<path d="M12 22C17.5228 22 22 17.5228 22 12C22 6.47715 17.5228 2 12 2C6.47715 2 2 6.47715 2 12C2 17.5228 6.47715 22 12 22Z" />
<path d="M8.76953 12.7308L9.95595 16.0146C9.95595 16.0146 10.1043 16.3219 10.2631 16.3219C10.4219 16.3219 12.7844 13.8642 12.7844 13.8642L15.4114 8.79004L8.81186 11.8831L8.76953 12.7308Z" />
<path d="M10.3421 13.5732L10.1143 15.9937C10.1143 15.9937 10.019 16.7354 10.7605 15.9937C11.502 15.2521 12.2118 14.6802 12.2118 14.6802" fill="black"/>
<path d="M8.79067 12.8482L6.35017 12.0531C6.35017 12.0531 6.05851 11.9347 6.15242 11.6664C6.17176 11.6111 6.21075 11.564 6.32742 11.4831C6.86817 11.1062 16.3363 7.70307 16.3363 7.70307C16.3363 7.70307 16.6036 7.61299 16.7613 7.67291C16.8003 7.68498 16.8354 7.7072 16.863 7.73729C16.8906 7.76738 16.9097 7.80426 16.9183 7.84416C16.9354 7.91463 16.9425 7.98713 16.9395 8.05957C16.9388 8.12224 16.9312 8.18032 16.9254 8.27141C16.8678 9.20182 15.1421 16.1458 15.1421 16.1458C15.1421 16.1458 15.0388 16.5522 14.6689 16.5661C14.578 16.569 14.4874 16.5536 14.4026 16.5208C14.3178 16.488 14.2404 16.4384 14.1752 16.3751C13.4493 15.7507 10.9403 14.0645 10.3858 13.6937C10.3733 13.6851 10.3628 13.674 10.355 13.6611C10.3471 13.6482 10.3421 13.6337 10.3403 13.6187C10.3326 13.5796 10.3751 13.5312 10.3751 13.5312C10.3751 13.5312 14.7439 9.64782 14.8602 9.24016C14.8692 9.20857 14.8352 9.19299 14.7895 9.20682C14.4993 9.31357 9.46917 12.4902 8.91401 12.8407C8.87404 12.8528 8.8318 12.8554 8.79067 12.8482Z" fill="black"/>
</svg>
