<svg width="24" height="24" viewBox="0 0 24 24" fill="none" xmlns="http://www.w3.org/2000/svg">
<g id="telegram">
<path id="telegram_2" d="M12 22C17.5228 22 22 17.5228 22 12C22 6.47715 17.5228 2 12 2C6.47715 2 2 6.47715 2 12C2 17.5228 6.47715 22 12 22Z" fill="#818181"/>
<path id="vector" d="M8.7691 12.7308L9.95552 16.0146C9.95552 16.0146 10.1039 16.3219 10.2627 16.3219C10.4215 16.3219 12.7839 13.8642 12.7839 13.8642L15.411 8.79004L8.81144 11.8831L8.7691 12.7308Z" fill="#9E9E9E"/>
<path id="vector_2" d="M10.3422 13.5732L10.1144 15.9937C10.1144 15.9937 10.0191 16.7354 10.7606 15.9937C11.5021 15.2521 12.2118 14.6802 12.2118 14.6802" fill="black"/>
<path id="vector_3" d="M8.79049 12.8482L6.34999 12.0531C6.34999 12.0531 6.05832 11.9347 6.15224 11.6664C6.17157 11.6111 6.21057 11.564 6.32724 11.4831C6.86799 11.1062 16.3361 7.70307 16.3361 7.70307C16.3361 7.70307 16.6034 7.61299 16.7611 7.67291C16.8001 7.68498 16.8352 7.7072 16.8628 7.73729C16.8904 7.76738 16.9095 7.80426 16.9182 7.84416C16.9352 7.91463 16.9423 7.98713 16.9393 8.05957C16.9386 8.12224 16.931 8.18032 16.9252 8.27141C16.8676 9.20182 15.1419 16.1458 15.1419 16.1458C15.1419 16.1458 15.0387 16.5522 14.6687 16.5661C14.5778 16.569 14.4873 16.5536 14.4024 16.5208C14.3176 16.488 14.2403 16.4384 14.175 16.3751C13.4491 15.7507 10.9401 14.0645 10.3857 13.6937C10.3731 13.6851 10.3626 13.674 10.3548 13.6611C10.3469 13.6482 10.3419 13.6337 10.3402 13.6187C10.3324 13.5796 10.3749 13.5312 10.3749 13.5312C10.3749 13.5312 14.7437 9.64782 14.86 9.24016C14.869 9.20857 14.835 9.19299 14.7893 9.20682C14.4992 9.31357 9.46899 12.4902 8.91382 12.8407C8.87386 12.8528 8.83162 12.8554 8.79049 12.8482Z" fill="black"/>
</g>
</svg>
