<svg width="160" height="160" viewBox="0 0 160 160" fill="none" xmlns="http://www.w3.org/2000/svg">
<g id="Frame 61783">
<path id="Vector" d="M142.619 52.7813C139.156 44.4468 133.736 36.7116 127.463 30.4471C121.191 24.1645 113.178 19.4616 104.857 15.9934C96.8263 12.6705 87.9072 11 78.6798 11C69.4524 11 59.9712 11.3268 51.9585 14.6679C43.6375 18.1179 36.6762 24.6729 30.4038 30.9555C24.1313 37.22 16.8618 43.8839 13.4174 52.2184C10.0818 60.2624 11.1695 70.0495 11.1695 79.2918C11.1695 88.5342 11.8402 97.6132 15.1759 105.657C18.6203 113.973 25.636 119.875 31.9084 126.139C38.1809 132.422 43.8551 139.939 52.176 143.389C60.2069 146.73 69.4524 149 78.6798 149C87.9072 149 96.9714 146.258 104.984 142.917C113.305 139.467 120.828 134.074 127.083 127.792C133.355 121.509 138.413 113.846 141.857 105.512C145.193 97.4679 149 88.5342 149 79.2918C149 70.0495 145.936 60.8071 142.619 52.7813Z" fill="#F3F3F3"/>
<g id="sentiment_dissatisfied">
<mask id="mask0_5861_16508" style="mask-type:alpha" maskUnits="userSpaceOnUse" x="44" y="44" width="72" height="72">
<rect id="Bounding box" x="44" y="44" width="72" height="72" fill="#D9D9D9"/>
</mask>
<g mask="url(#mask0_5861_16508)">
<path id="sentiment_dissatisfied_2" d="M90.5 77C91.75 77 92.8125 76.5625 93.6875 75.6875C94.5625 74.8125 95 73.75 95 72.5C95 71.25 94.5625 70.1875 93.6875 69.3125C92.8125 68.4375 91.75 68 90.5 68C89.25 68 88.1875 68.4375 87.3125 69.3125C86.4375 70.1875 86 71.25 86 72.5C86 73.75 86.4375 74.8125 87.3125 75.6875C88.1875 76.5625 89.25 77 90.5 77ZM69.5 77C70.75 77 71.8125 76.5625 72.6875 75.6875C73.5625 74.8125 74 73.75 74 72.5C74 71.25 73.5625 70.1875 72.6875 69.3125C71.8125 68.4375 70.75 68 69.5 68C68.25 68 67.1875 68.4375 66.3125 69.3125C65.4375 70.1875 65 71.25 65 72.5C65 73.75 65.4375 74.8125 66.3125 75.6875C67.1875 76.5625 68.25 77 69.5 77ZM80 84.5C76.6 84.5 73.5125 85.4625 70.7375 87.3875C67.9625 89.3125 65.95 91.85 64.7 95H69.65C70.75 93.15 72.2125 91.6875 74.0375 90.6125C75.8625 89.5375 77.85 89 80 89C82.15 89 84.1375 89.5375 85.9625 90.6125C87.7875 91.6875 89.25 93.15 90.35 95H95.3C94.05 91.85 92.0375 89.3125 89.2625 87.3875C86.4875 85.4625 83.4 84.5 80 84.5ZM80 110C75.85 110 71.95 109.212 68.3 107.637C64.65 106.062 61.475 103.925 58.775 101.225C56.075 98.525 53.9375 95.35 52.3625 91.7C50.7875 88.05 50 84.15 50 80C50 75.85 50.7875 71.95 52.3625 68.3C53.9375 64.65 56.075 61.475 58.775 58.775C61.475 56.075 64.65 53.9375 68.3 52.3625C71.95 50.7875 75.85 50 80 50C84.15 50 88.05 50.7875 91.7 52.3625C95.35 53.9375 98.525 56.075 101.225 58.775C103.925 61.475 106.062 64.65 107.637 68.3C109.212 71.95 110 75.85 110 80C110 84.15 109.212 88.05 107.637 91.7C106.062 95.35 103.925 98.525 101.225 101.225C98.525 103.925 95.35 106.062 91.7 107.637C88.05 109.212 84.15 110 80 110ZM80 104C86.7 104 92.375 101.675 97.025 97.025C101.675 92.375 104 86.7 104 80C104 73.3 101.675 67.625 97.025 62.975C92.375 58.325 86.7 56 80 56C73.3 56 67.625 58.325 62.975 62.975C58.325 67.625 56 73.3 56 80C56 86.7 58.325 92.375 62.975 97.025C67.625 101.675 73.3 104 80 104Z" fill="#BABABA"/>
</g>
</g>
</g>
</svg>
