<svg width="88" height="88" viewBox="0 0 88 88" fill="none" xmlns="http://www.w3.org/2000/svg">
    <path d="M83.9308 26.6432C81.7228 21.3284 78.2663 16.3958 74.2665 12.4011C70.2667 8.39474 65.1571 5.39579 59.851 3.18421C54.7298 1.06526 49.0422 0 43.1581 0C37.274 0 31.228 0.208421 26.1184 2.33895C20.8123 4.53895 16.3732 8.71895 12.3734 12.7253C8.37359 16.72 3.73797 20.9695 1.54154 26.2842C-0.585534 31.4137 0.108076 37.6547 0.108076 43.5484C0.108076 49.4421 0.535801 55.2316 2.66287 60.3611C4.8593 65.6642 9.33309 69.4274 13.3329 73.4221C17.3327 77.4284 20.9511 82.2221 26.2572 84.4221C31.3783 86.5526 37.274 88 43.1581 88C49.0422 88 54.8223 86.2516 59.9319 84.1211C65.238 81.9211 70.0355 78.4821 74.0238 74.4758C78.0236 70.4695 81.2489 65.5832 83.4453 60.2684C85.5724 55.1389 88 49.4421 88 43.5484C88 37.6547 86.0463 31.7611 83.9308 26.6432Z"
          fill="#F3F3F3"/>
    <g clip-path="url(#clip0_6271_10422)">
        <path d="M29.1667 29H59.1667C59.6087 29 60.0326 29.1756 60.3452 29.4882C60.6577 29.8007 60.8333 30.2246 60.8333 30.6667V57.3333C60.8333 57.7754 60.6577 58.1993 60.3452 58.5118C60.0326 58.8244 59.6087 59 59.1667 59H29.1667C28.7246 59 28.3007 58.8244 27.9882 58.5118C27.6756 58.1993 27.5 57.7754 27.5 57.3333V30.6667C27.5 30.2246 27.6756 29.8007 27.9882 29.4882C28.3007 29.1756 28.7246 29 29.1667 29ZM30.8333 32.3333V55.6667H57.5V32.3333H30.8333ZM35.8333 45.6667H39.1667V52.3333H35.8333V45.6667ZM42.5 35.6667H45.8333V52.3333H42.5V35.6667ZM49.1667 40.6667H52.5V52.3333H49.1667V40.6667Z"
              fill="#6FC7BA"/>
    </g>
    <defs>
        <clipPath id="clip0_6271_10422">
            <rect width="40" height="40" fill="white" transform="translate(24.5 24)"/>
        </clipPath>
    </defs>
</svg>
