<svg width="24" height="24" viewBox="0 0 24 24" xmlns="http://www.w3.org/2000/svg">
<path fill-rule="evenodd" clip-rule="evenodd" d="M11.25 7.5H12C12.414 7.5 12.75 7.836 12.75 8.25V11.25C12.75 11.664 12.414 12 12 12V14.25C12 14.664 11.664 15 11.25 15V16.5C11.664 16.5 12 16.836 12 17.25V20.25C12 20.664 11.664 21 11.25 21H4.5C4.086 21 3.75 20.664 3.75 20.25V18C3.336 18 3 17.664 3 17.25V14.25C3 13.836 3.336 13.5 3.75 13.5V11.25C3.75 10.836 4.086 10.5 4.5 10.5V9H3.75C3.336 9 3 8.664 3 8.25V5.25C3 4.836 3.336 4.5 3.75 4.5H10.5C10.914 4.5 11.25 4.836 11.25 5.25V7.5ZM12.75 11.25V14.25V17.25V20.25C12.75 20.664 13.086 21 13.5 21H20.25C20.664 21 21 20.664 21 20.25V17.25V14.25V11.25C21 10.836 20.664 10.5 20.25 10.5H13.5C13.086 10.5 12.75 10.836 12.75 11.25ZM11.25 10.5V9H9.75V10.5H11.25ZM7.5 7.5H9.75V6H7.5V7.5ZM6 6H4.5V7.5H6V6ZM8.25 9H6V10.5H8.25V9ZM6.75 13.5V12H5.25V13.5H6.75ZM4.5 15V16.5H6V15H4.5ZM6.75 19.5V18H5.25V19.5H6.75ZM8.25 19.5H10.5V18H8.25V19.5ZM7.5 16.5H9.75V15H7.5V16.5ZM8.25 13.5H10.5V12H8.25V13.5ZM15 15H14.25V16.5H15V15ZM16.5 15V16.5H19.5V15H16.5ZM18 13.5H19.5V12H18V13.5ZM16.5 12H14.25V13.5H16.5V12ZM16.5 18H14.25V19.5H16.5V18ZM18 19.5H19.5V18H18V19.5Z" />
</svg>
