<svg width="104" height="104" viewBox="0 0 104 104" fill="none" xmlns="http://www.w3.org/2000/svg">
<path d="M91.4308 34.6432C89.2228 29.3284 85.7663 24.3958 81.7665 20.4011C77.7667 16.3947 72.6571 13.3958 67.351 11.1842C62.2298 9.06526 56.5422 8 50.6581 8C44.774 8 38.728 8.20842 33.6184 10.3389C28.3123 12.5389 23.8732 16.7189 19.8734 20.7253C15.8736 24.72 11.238 28.9695 9.04154 34.2842C6.91447 39.4137 7.60808 45.6547 7.60808 51.5484C7.60808 57.4421 8.0358 63.2316 10.1629 68.3611C12.3593 73.6642 16.8331 77.4274 20.8329 81.4221C24.8327 85.4284 28.4511 90.2221 33.7572 92.4221C38.8783 94.5526 44.774 96 50.6581 96C56.5422 96 62.3223 94.2516 67.4319 92.1211C72.738 89.9211 77.5355 86.4821 81.5238 82.4758C85.5236 78.4695 88.7489 73.5832 90.9453 68.2684C93.0724 63.1389 95.5 57.4421 95.5 51.5484C95.5 45.6547 93.5463 39.7611 91.4308 34.6432Z" fill="#F3F3F3"/>
<path d="M42.5003 68.6663C41.5837 68.6663 40.7989 68.34 40.1462 67.6872C39.4934 67.0344 39.167 66.2497 39.167 65.333V38.6663C39.167 37.7497 39.4934 36.965 40.1462 36.3122C40.7989 35.6594 41.5837 35.333 42.5003 35.333H55.8337L65.8337 45.333V52.583C65.3059 52.3886 64.7642 52.2427 64.2087 52.1455C63.6531 52.0483 63.0837 51.9997 62.5003 51.9997V46.9997H54.167V38.6663H42.5003V65.333H53.0837C53.3059 65.9719 53.5837 66.5691 53.917 67.1247C54.2503 67.6802 54.6392 68.1941 55.0837 68.6663H42.5003ZM59.0003 67.833L56.667 65.4997L60.167 61.9997L56.667 58.4997L59.0003 56.1663L62.5003 59.6663L66.0003 56.1663L68.3337 58.4997L64.8753 61.9997L68.3337 65.4997L66.0003 67.833L62.5003 64.3747L59.0003 67.833Z" fill="#BABABA"/>
</svg>
