<svg width="365" height="354" viewBox="0 0 365 354" fill="none" xmlns="http://www.w3.org/2000/svg">
<path d="M166 1.5H199C217.502 1.5 232.5 16.4985 232.5 35V68C232.5 86.5015 217.502 101.5 199 101.5H166C147.498 101.5 132.5 86.5015 132.5 68V35C132.5 16.4985 147.498 1.5 166 1.5Z" stroke="#F3F3F3" stroke-width="3"/>
<path d="M40.3652 6.31934C46.7908 -0.106251 57.2092 -0.10625 63.6348 6.31934L97.6807 40.3652C104.106 46.7908 104.106 57.2092 97.6807 63.6348L63.6348 97.6807C57.2092 104.106 46.7908 104.106 40.3652 97.6807L6.31934 63.6348C-0.10625 57.2092 -0.106251 46.7908 6.31934 40.3652L40.3652 6.31934Z" stroke="#F3F3F3" stroke-width="3"/>
<rect x="2.5" y="251" width="100" height="100" rx="50" stroke="#F3F3F3" stroke-width="3"/>
<rect x="257.5" y="3" width="100" height="100" rx="50" stroke="#F3F3F3" stroke-width="3"/>
<path d="M291.824 259.995C298.838 248.002 316.162 248.002 323.176 259.995L360.984 324.649C368.07 336.765 359.335 352 345.309 352H269.691C255.665 352 246.93 336.765 254.016 324.649L291.824 259.995Z" stroke="#F3F3F3" stroke-width="3"/>
<path d="M299.404 130.62C303.482 124.46 312.518 124.46 316.596 130.62L328.743 148.969C330.605 151.78 333.462 153.781 336.74 154.566L350.581 157.883C358.524 159.786 361.21 169.741 355.3 175.388L345.156 185.077C342.117 187.981 340.626 192.15 341.134 196.324L343.456 215.409C344.445 223.535 336.046 229.52 328.7 225.935L313.836 218.678C310.153 216.88 305.847 216.88 302.164 218.678L287.3 225.935C279.954 229.52 271.555 223.535 272.544 215.409L274.866 196.324C275.374 192.15 273.883 187.981 270.844 185.077L260.7 175.388C254.79 169.741 257.476 159.786 265.419 157.883L279.26 154.566C282.538 153.781 285.395 151.78 287.257 148.969L299.404 130.62Z" stroke="#F3F3F3" stroke-width="3"/>
<path d="M35.6738 131.638C46.0096 124.121 59.9904 124.121 70.3262 131.638L92.3018 147.62C102.672 155.162 107.014 168.554 103.047 180.776L94.6797 206.552C90.7206 218.749 79.3889 227 66.6094 227H39.3906C26.6111 227 15.2794 218.749 11.3203 206.552L2.95312 180.776C-1.01401 168.554 3.32821 155.162 13.6982 147.62L35.6738 131.638Z" stroke="#F3F3F3" stroke-width="3"/>
<path d="M175.39 252.604C179.885 250.465 185.115 250.465 189.61 252.604L218.145 266.182C222.668 268.334 225.953 272.416 227.073 277.266L234.083 307.61C235.207 312.477 234.03 317.588 230.884 321.485L211.196 345.879C208.074 349.747 203.352 352 198.356 352H166.644C161.648 352 156.926 349.747 153.804 345.879L134.116 321.485C130.97 317.588 129.793 312.477 130.917 307.61L137.927 277.266C139.047 272.416 142.332 268.334 146.855 266.182L175.39 252.604Z" stroke="#F3F3F3" stroke-width="3"/>
<path d="M182.005 125.551C188.923 125.551 195.605 126.803 201.617 129.29V129.291C207.669 131.814 213.491 135.2 218.113 139.681L218.557 140.118C223.112 144.668 227.066 150.25 229.666 156.269L229.913 156.853C232.409 162.892 234.699 169.812 234.699 176.717C234.699 182.749 232.524 188.614 230.293 194.056L229.34 196.361C226.839 202.412 223.204 207.989 218.708 212.61L218.27 213.055C213.58 217.766 207.942 221.805 201.714 224.388L201.713 224.389C195.691 226.9 188.902 228.949 182.005 228.949C175.53 228.949 169.036 227.456 163.286 225.204L162.146 224.744C159.06 223.464 156.454 221.426 154.022 219.104C152.807 217.944 151.638 216.716 150.475 215.479C149.313 214.243 148.155 212.997 146.97 211.81V211.809L146.073 210.922C141.722 206.651 137.146 202.562 134.673 197.047L134.425 196.471C131.935 190.466 131.429 183.673 131.429 176.717C131.429 173.205 131.224 169.657 131.333 166.186C131.442 162.728 131.863 159.411 133.1 156.429V156.428C135.667 150.216 141.089 145.243 145.836 140.502V140.501C150.565 135.764 155.774 130.866 161.982 128.292H161.983C167.959 125.8 175.047 125.551 182.005 125.551ZM196.524 146.738L185.499 148.38L185.202 148.424L185.246 148.722L188.293 169.332L165.808 151.997L165.568 151.812L165.386 152.053L158.609 160.934L158.428 161.172L158.664 161.354L178.589 176.716L158.664 192.092L158.428 192.274L158.609 192.513L165.386 201.394L165.568 201.634L165.808 201.449L188.293 184.113L185.246 204.725L185.202 205.022L185.499 205.066L196.524 206.708L196.822 206.753L196.866 206.455L201.238 176.76L201.244 176.717L201.238 176.673L196.866 146.991L196.822 146.693L196.524 146.738Z" fill="#6FC7BA" stroke="#F3F3F3" stroke-width="0.601156"/>
</svg>
