<svg width="24" height="24" viewBox="0 0 24 24" xmlns="http://www.w3.org/2000/svg">
<path fill-rule="evenodd" clip-rule="evenodd" d="M12 2C17.523 2 22 6.58993 22 12.2529C22 16.7819 19.138 20.624 15.167 21.981C14.66 22.082 14.48 21.7618 14.48 21.4888C14.48 21.1508 14.492 20.0468 14.492 18.6748C14.492 17.7188 14.172 17.0949 13.813 16.7769C16.04 16.5229 18.38 15.6558 18.38 11.7178C18.38 10.5978 17.992 9.68382 17.35 8.96582C17.454 8.70682 17.797 7.66395 17.252 6.25195C17.252 6.25195 16.414 5.97722 14.505 7.30322C13.706 7.07622 12.85 6.96201 12 6.95801C11.15 6.96201 10.295 7.07622 9.497 7.30322C7.586 5.97722 6.746 6.25195 6.746 6.25195C6.203 7.66395 6.546 8.70682 6.649 8.96582C6.01 9.68382 5.619 10.5978 5.619 11.7178C5.619 15.6458 7.954 16.5262 10.175 16.7852C9.889 17.0412 9.63 17.4928 9.54 18.1558C8.97 18.4178 7.522 18.8712 6.63 17.3042C6.63 17.3042 6.101 16.3191 5.097 16.2471C5.097 16.2471 4.122 16.2341 5.029 16.8701C5.029 16.8701 5.684 17.1851 6.139 18.3701C6.139 18.3701 6.726 20.2001 9.508 19.5801C9.513 20.4371 9.522 21.2448 9.522 21.4888C9.522 21.7598 9.338 22.0769 8.839 21.9819C4.865 20.6269 2 16.7829 2 12.2529C2 6.58993 6.478 2 12 2Z" />
</svg>
