<svg width="404" height="405" viewBox="0 0 404 405" fill="none" xmlns="http://www.w3.org/2000/svg">
<path fill-rule="evenodd" clip-rule="evenodd" d="M188.311 0.556922C191.606 0.514191 194.897 0.5 198.173 0.5C201.455 0.5 204.724 0.57225 207.977 0.716685C209.08 0.765684 209.935 1.69995 209.886 2.80344C209.837 3.90692 208.903 4.76175 207.799 4.71275C204.606 4.57096 201.396 4.5 198.173 4.5C194.908 4.5 191.635 4.51415 188.363 4.55659C187.258 4.57091 186.351 3.68716 186.337 2.58269C186.323 1.47821 187.206 0.571245 188.311 0.556922ZM170.673 3.13689C170.746 4.2391 169.911 5.19117 168.808 5.26341C162.245 5.69361 155.765 6.35589 149.441 7.36624C148.35 7.54049 147.325 6.79754 147.151 5.7068C146.976 4.61606 147.719 3.59058 148.81 3.41633C155.283 2.38217 161.89 1.70831 168.547 1.27198C169.649 1.19974 170.601 2.03469 170.673 3.13689ZM225.256 4.18999C225.407 3.09571 226.416 2.33054 227.51 2.48095C234.042 3.37874 240.48 4.58147 246.798 6.08867C247.872 6.34499 248.536 7.42376 248.279 8.49818C248.023 9.5726 246.944 10.2358 245.87 9.97949C239.681 8.50314 233.371 7.32415 226.965 6.44369C225.871 6.29329 225.106 5.28427 225.256 4.18999ZM131.876 9.19125C132.204 10.2459 131.616 11.367 130.561 11.6953C127.469 12.6577 124.442 13.7464 121.49 14.9775L121.486 14.9791C118.51 16.2129 115.592 17.5878 112.728 19.0855C111.749 19.5974 110.541 19.2188 110.029 18.24C109.517 17.2611 109.896 16.0527 110.875 15.5409C113.836 13.9924 116.861 12.5668 119.952 11.2849C123.027 10.0028 126.171 8.87251 129.372 7.8761C130.427 7.54779 131.548 8.1366 131.876 9.19125ZM263.087 12.8425C263.453 11.8004 264.595 11.2525 265.637 11.6187C268.736 12.7078 271.796 13.8768 274.815 15.1256L274.819 15.1276C277.844 16.3884 280.856 17.7055 283.847 19.0808C284.85 19.5423 285.29 20.7299 284.828 21.7334C284.367 22.737 283.179 23.1764 282.176 22.7149C279.231 21.3607 276.263 20.063 273.282 18.8202C270.332 17.6 267.341 16.4574 264.311 15.3925C263.269 15.0263 262.721 13.8846 263.087 12.8425ZM96.704 26.5442C97.3482 27.4415 97.143 28.6911 96.2457 29.3352C90.9883 33.1096 85.9165 37.215 80.9992 41.5079C80.1671 42.2343 78.9037 42.1486 78.1773 41.3166C77.4508 40.4845 77.5365 39.221 78.3686 38.4946C83.359 34.1379 88.531 29.9497 93.9129 26.0859C94.8102 25.4417 96.0598 25.6469 96.704 26.5442ZM298.703 28.786C299.245 27.8232 300.464 27.4815 301.427 28.0228C307.179 31.2571 312.784 34.7418 318.174 38.4932C319.081 39.1242 319.304 40.3706 318.673 41.2772C318.042 42.1839 316.796 42.4073 315.889 41.7764C310.612 38.1038 305.117 34.6864 299.467 31.5095C298.504 30.9682 298.162 29.7488 298.703 28.786ZM330.941 50.854C331.67 50.0248 332.934 49.9443 333.763 50.6741C336.246 52.8599 338.658 55.1189 340.988 57.4533C343.318 59.7801 345.608 62.1761 347.85 64.6359C348.594 65.4522 348.536 66.7172 347.719 67.4614C346.903 68.2055 345.638 68.147 344.894 67.3307C342.694 64.9168 340.447 62.5661 338.162 60.2835L338.16 60.2815C335.891 58.0094 333.542 55.8085 331.12 53.6767C330.291 52.9469 330.211 51.6831 330.941 50.854ZM66.6771 52.0138C67.4483 52.8046 67.4324 54.0709 66.6416 54.842C64.2814 57.1438 61.9552 59.4543 59.6581 61.7552L59.6561 61.7572C57.8862 63.5249 56.088 65.3044 54.2793 67.0944C53.7208 67.6471 53.1613 68.2008 52.6013 68.7554C51.8165 69.5327 50.5502 69.5267 49.7729 68.7419C48.9956 67.9571 49.0017 66.6908 49.7865 65.9135C50.3488 65.3565 50.9096 64.8015 51.4686 64.2483C53.2765 62.4591 55.0662 60.688 56.8295 58.927C59.1334 56.6193 61.4723 54.296 63.8489 51.9783C64.6397 51.2072 65.9059 51.223 66.6771 52.0138ZM357.734 79.5251C358.616 78.8598 359.87 79.0352 360.535 79.9169C364.515 85.1905 368.266 90.6717 371.738 96.3216C372.316 97.2627 372.022 98.4944 371.081 99.0728C370.14 99.6511 368.908 99.3571 368.33 98.416C364.926 92.8773 361.247 87.5011 357.342 82.3263C356.677 81.4446 356.852 80.1905 357.734 79.5251ZM38.6398 80.035C39.4445 80.7916 39.4835 82.0574 38.7269 82.8621C34.2119 87.664 29.8575 92.6021 25.8639 97.7359C25.1857 98.6077 23.9291 98.7647 23.0573 98.0865C22.1854 97.4082 22.0285 96.1517 22.7067 95.2798C26.7996 90.0183 31.2423 84.983 35.8127 80.1221C36.5694 79.3174 37.8351 79.2784 38.6398 80.035ZM14.2612 111.272C15.2304 111.802 15.5867 113.017 15.057 113.986C13.4983 116.838 12.0891 119.752 10.8554 122.738L10.8544 122.74C9.62727 125.699 8.60981 128.749 7.76891 131.879C7.48226 132.945 6.38513 133.578 5.3184 133.291C4.25168 133.004 3.6193 131.907 3.90596 130.841C4.78742 127.56 5.85892 124.344 7.15861 121.21M14.2612 111.272C13.292 110.742 12.0768 111.098 11.547 112.068ZM11.547 112.068C9.925 115.035 8.45207 118.08 7.15876 121.209ZM378.61 112.825C379.605 112.346 380.8 112.764 381.28 113.759C382.722 116.754 384.081 119.782 385.351 122.838L385.352 122.841C386.606 125.874 387.848 128.97 389.061 132.118C389.458 133.149 388.944 134.307 387.913 134.703C386.882 135.1 385.725 134.587 385.328 133.556C384.129 130.441 382.899 127.377 381.655 124.369C380.415 121.384 379.086 118.424 377.676 115.495C377.197 114.5 377.615 113.304 378.61 112.825ZM2.78215 148.903C3.88305 148.993 4.70261 149.959 4.61268 151.06C4.08957 157.464 3.96617 164.037 4.00731 170.697C4.01413 171.802 3.12425 172.703 2.0197 172.71C0.915155 172.716 0.0142112 171.827 0.00738898 170.722C-0.0341094 164.003 0.0895216 157.301 0.625962 150.734C0.71589 149.633 1.68125 148.813 2.78215 148.903ZM393.156 149.698C394.211 149.372 395.331 149.963 395.657 151.018C397.62 157.366 399.348 163.858 400.715 170.44C400.939 171.522 400.245 172.581 399.163 172.805C398.082 173.03 397.023 172.335 396.798 171.254C395.461 164.815 393.767 158.446 391.836 152.2C391.51 151.145 392.101 150.025 393.156 149.698ZM401.453 188.52C402.555 188.435 403.517 189.259 403.602 190.36C403.862 193.715 404 197.08 404 200.447C404 203.83 403.828 207.194 403.508 210.536C403.402 211.636 402.426 212.442 401.326 212.337C400.227 212.232 399.421 211.255 399.526 210.155C399.835 206.931 400 203.694 400 200.447C400 197.189 399.866 193.927 399.614 190.669C399.529 189.568 400.352 188.606 401.453 188.52ZM2.33915 188.535C3.44351 188.513 4.35639 189.391 4.37813 190.495C4.4436 193.821 4.49126 197.144 4.49126 200.447C4.49126 203.686 4.51978 206.915 4.587 210.131C4.61008 211.235 3.73356 212.149 2.62923 212.172C1.52491 212.195 0.610957 211.319 0.587872 210.214C0.519978 206.967 0.491259 203.709 0.491259 200.447C0.491259 197.181 0.444125 193.887 0.378902 190.574C0.357164 189.469 1.2348 188.557 2.33915 188.535ZM3.39191 227.604C4.49256 227.511 5.46011 228.328 5.55298 229.429C6.0994 235.904 6.89686 242.28 8.03301 248.52C8.23088 249.607 7.51033 250.648 6.42362 250.846C5.33692 251.044 4.29558 250.324 4.09771 249.237C2.93484 242.85 2.12237 236.345 1.56715 229.765C1.47427 228.664 2.29125 227.697 3.39191 227.604ZM398.552 227.912C399.623 228.181 400.274 229.267 400.006 230.338C398.378 236.834 396.354 243.221 394.13 249.47C393.76 250.51 392.616 251.053 391.575 250.683C390.535 250.313 389.991 249.169 390.362 248.128C392.555 241.966 394.537 235.706 396.126 229.366C396.394 228.295 397.481 227.644 398.552 227.912ZM385.843 265.436C386.866 265.855 387.355 267.023 386.936 268.045C385.915 270.538 384.89 273.005 383.88 275.441C383.634 276.034 383.388 276.625 383.144 277.213C381.891 280.246 380.565 283.248 379.168 286.215C378.698 287.215 377.506 287.643 376.507 287.173C375.507 286.702 375.079 285.511 375.549 284.512C376.919 281.601 378.219 278.657 379.448 275.683L379.449 275.681C379.695 275.088 379.942 274.493 380.19 273.897C381.199 271.464 382.218 269.009 383.234 266.528C383.653 265.506 384.821 265.017 385.843 265.436ZM10.1332 265.84C11.1842 265.5 12.3118 266.076 12.6518 267.127C13.6353 270.167 14.7313 273.16 15.9514 276.102L15.9517 276.103C17.1649 279.032 18.5361 281.859 20.0428 284.598C20.5751 285.566 20.2221 286.782 19.2542 287.315C18.2864 287.847 17.0703 287.494 16.538 286.526C14.9651 283.666 13.5294 280.708 12.2565 277.635C10.9933 274.588 9.86075 271.494 8.84606 268.358C8.50603 267.307 9.08232 266.18 10.1332 265.84ZM27.8509 299.97C28.713 299.279 29.9717 299.418 30.6622 300.28C34.6116 305.211 38.9211 309.91 43.4094 314.511C44.1807 315.301 44.1651 316.567 43.3745 317.339C42.5839 318.11 41.3177 318.095 40.5463 317.304C36.0044 312.649 31.5989 307.848 27.5403 302.781C26.8497 301.919 26.9888 300.66 27.8509 299.97ZM369.244 300.858C370.194 301.422 370.506 302.649 369.942 303.599C366.585 309.253 362.96 314.736 359.085 320.016C358.431 320.907 357.18 321.099 356.289 320.445C355.399 319.792 355.207 318.54 355.86 317.65C359.658 312.475 363.211 307.1 366.503 301.557C367.067 300.607 368.294 300.294 369.244 300.858ZM54.2853 328.076C55.0555 327.284 56.3217 327.266 57.1134 328.037C59.4272 330.287 61.7381 332.545 64.0174 334.822L64.0195 334.824C66.3119 337.12 68.5734 339.469 70.8196 341.837C71.5798 342.639 71.5463 343.904 70.7449 344.665C69.9435 345.425 68.6776 345.391 67.9175 344.59C65.6841 342.235 63.4486 339.913 61.1897 337.651C58.9301 335.394 56.635 333.152 54.3242 330.904C53.5325 330.133 53.5151 328.867 54.2853 328.076ZM346.516 332.466C347.336 333.206 347.403 334.47 346.664 335.291C344.464 337.734 342.205 340.118 339.889 342.437C337.58 344.757 335.212 347.035 332.787 349.266C331.974 350.013 330.709 349.961 329.961 349.148C329.213 348.335 329.266 347.07 330.079 346.322C332.46 344.131 334.786 341.894 337.054 339.615L337.056 339.613C339.324 337.342 341.536 335.008 343.691 332.615C344.43 331.794 345.695 331.727 346.516 332.466ZM81.3366 355.893C82.1291 355.124 83.3953 355.142 84.1647 355.935C88.6799 360.585 93.2781 365.073 98.1138 369.182C98.9556 369.897 99.0583 371.159 98.3431 372.001C97.628 372.843 96.3658 372.945 95.524 372.23C90.5517 368.006 85.8543 363.417 81.295 358.721C80.5255 357.929 80.5442 356.663 81.3366 355.893ZM318.072 359.136C318.743 360.014 318.576 361.269 317.699 361.94C312.486 365.926 307.072 369.679 301.48 373.152C300.541 373.735 299.308 373.446 298.726 372.508C298.143 371.569 298.431 370.336 299.37 369.754C304.848 366.352 310.155 362.673 315.269 358.763C316.146 358.092 317.401 358.259 318.072 359.136ZM285.128 380.003C285.608 380.997 285.191 382.193 284.196 382.673C281.231 384.105 278.226 385.455 275.184 386.716C272.169 387.973 269.101 389.202 265.987 390.388C264.955 390.781 263.799 390.264 263.406 389.231C263.013 388.199 263.53 387.044 264.563 386.65C267.637 385.479 270.667 384.266 273.648 383.022L273.652 383.021C276.622 381.789 279.558 380.471 282.457 379.071C283.452 378.591 284.647 379.008 285.128 380.003ZM110.895 380.967C111.441 380.007 112.662 379.671 113.622 380.218C116.353 381.771 119.179 383.171 122.117 384.389L122.119 384.39C125.103 385.632 128.145 386.821 131.237 387.952C132.275 388.332 132.808 389.48 132.429 390.517C132.05 391.555 130.901 392.088 129.864 391.709C126.716 390.558 123.619 389.347 120.583 388.083L121.351 386.237L120.585 388.084C120.584 388.084 120.583 388.084 120.583 388.083C117.481 386.798 114.508 385.324 111.644 383.694C110.684 383.148 110.348 381.927 110.895 380.967ZM248.552 394.285C248.865 395.344 248.261 396.457 247.202 396.771C240.89 398.639 234.442 400.254 227.898 401.518C226.814 401.727 225.765 401.018 225.555 399.933C225.346 398.849 226.056 397.8 227.14 397.59C233.542 396.354 239.863 394.772 246.066 392.935C247.126 392.622 248.238 393.226 248.552 394.285ZM147.449 395.269C147.734 394.201 148.831 393.568 149.898 393.853C156.158 395.527 162.546 396.929 169.009 398.007C170.098 398.189 170.834 399.22 170.652 400.309C170.471 401.399 169.44 402.134 168.351 401.953C161.755 400.852 155.241 399.422 148.865 397.717C147.798 397.432 147.164 396.336 147.449 395.269ZM210.006 402.012C210.083 403.114 209.253 404.069 208.151 404.146C204.838 404.378 201.51 404.5 198.173 404.5C194.841 404.5 191.509 404.399 188.184 404.204C187.081 404.139 186.24 403.193 186.304 402.09C186.369 400.988 187.315 400.146 188.418 400.211C191.667 400.402 194.921 400.5 198.173 400.5C201.413 400.5 204.647 400.382 207.872 400.156C208.973 400.079 209.929 400.91 210.006 402.012Z" fill="#6FC7BA"/>
<path fill-rule="evenodd" clip-rule="evenodd" d="M257.549 83.8625L258.913 93.0907C259.074 94.1834 258.32 95.2001 257.227 95.3616C256.134 95.5231 255.117 94.7682 254.956 93.6755L254.177 88.407L245.353 89.7171C244.26 89.8793 243.243 89.1251 243.081 88.0325C242.918 86.9399 243.673 85.9227 244.765 85.7605L257.549 83.8625ZM225.428 90.6532C225.59 91.7458 224.836 92.763 223.744 92.9252L214.917 94.2356L215.655 99.2085C215.817 100.301 215.062 101.318 213.97 101.48C212.877 101.642 211.86 100.888 211.698 99.7953L210.374 90.8663L223.156 88.9686C224.249 88.8064 225.266 89.5606 225.428 90.6532ZM134.193 103.646L141.435 109.211C142.311 109.884 142.476 111.14 141.803 112.016C141.13 112.892 139.874 113.056 138.998 112.383L134.934 109.26L129.511 116.344C128.84 117.221 127.584 117.388 126.707 116.716C125.83 116.045 125.663 114.79 126.335 113.912L134.193 103.646ZM258.784 105.901C259.877 105.74 260.894 106.495 261.055 107.587L263.197 122.084C263.359 123.177 262.604 124.193 261.511 124.355C260.418 124.516 259.402 123.761 259.24 122.669L257.098 108.172C256.937 107.079 257.692 106.063 258.784 105.901ZM215.445 111.425C216.537 111.263 217.554 112.018 217.716 113.11L219.778 127.012C219.94 128.105 219.186 129.122 218.093 129.284C217.001 129.446 215.984 128.692 215.822 127.599L213.76 113.697C213.598 112.605 214.352 111.587 215.445 111.425ZM149.938 118.267C150.611 117.391 151.866 117.227 152.742 117.9L164.049 126.589C164.924 127.262 165.089 128.517 164.416 129.393C163.743 130.269 162.487 130.433 161.611 129.76L150.305 121.072C149.429 120.399 149.265 119.143 149.938 118.267ZM115.857 130.89C116.734 131.562 116.901 132.817 116.23 133.694L110.802 140.784L115.829 144.648C116.705 145.321 116.869 146.576 116.196 147.452C115.523 148.328 114.267 148.492 113.391 147.819L105.199 141.523L113.053 131.263C113.725 130.386 114.98 130.219 115.857 130.89ZM172.551 135.644C173.224 134.769 174.479 134.604 175.355 135.277L186.662 143.966C187.538 144.639 187.702 145.895 187.029 146.77C186.356 147.646 185.1 147.811 184.225 147.138L172.918 138.449C172.042 137.776 171.878 136.52 172.551 135.644ZM263.069 134.895C264.161 134.733 265.178 135.488 265.339 136.581L267.482 151.077C267.643 152.17 266.888 153.187 265.795 153.348C264.703 153.51 263.686 152.755 263.525 151.662L261.382 137.165C261.221 136.073 261.976 135.056 263.069 134.895ZM219.568 139.229C220.661 139.067 221.678 139.821 221.84 140.914L223.902 154.816C224.064 155.908 223.31 156.925 222.217 157.088C221.124 157.25 220.107 156.495 219.945 155.403L217.883 141.501C217.721 140.408 218.476 139.391 219.568 139.229ZM195.164 153.022C195.837 152.146 197.093 151.981 197.968 152.654L209.275 161.343C210.151 162.016 210.315 163.272 209.642 164.148C208.969 165.023 207.714 165.188 206.838 164.515L195.531 155.826C194.655 155.153 194.491 153.898 195.164 153.022ZM126.243 155.174C126.916 154.298 128.172 154.134 129.048 154.807L142.267 164.966C143.143 165.639 143.307 166.894 142.634 167.77C141.961 168.646 140.705 168.81 139.829 168.137L126.61 157.978C125.735 157.305 125.57 156.05 126.243 155.174ZM267.353 163.888C268.446 163.726 269.462 164.481 269.624 165.574L271.766 180.071C271.927 181.163 271.173 182.18 270.08 182.342C268.987 182.503 267.97 181.748 267.809 180.655L265.667 166.159C265.505 165.066 266.26 164.049 267.353 163.888ZM223.692 167.033C224.785 166.871 225.802 167.625 225.964 168.718L227.72 180.562L218.144 173.203C217.268 172.53 217.104 171.275 217.777 170.399C218.45 169.523 219.706 169.359 220.582 170.032L222.312 171.362L222.007 169.304C221.845 168.212 222.599 167.195 223.692 167.033ZM152.681 175.492C153.354 174.616 154.61 174.452 155.486 175.125L168.705 185.284C169.58 185.957 169.745 187.212 169.072 188.088C168.399 188.964 167.143 189.128 166.267 188.455L153.048 178.296C152.172 177.623 152.008 176.368 152.681 175.492ZM271.637 192.881C272.73 192.72 273.747 193.475 273.908 194.567L275.022 202.108L273.908 209.652C273.747 210.745 272.73 211.5 271.637 211.338C270.545 211.177 269.79 210.16 269.951 209.068L270.979 202.108L269.951 195.152C269.79 194.059 270.545 193.043 271.637 192.881ZM179.119 195.81C179.792 194.934 181.048 194.77 181.923 195.443L190.595 202.107L181.924 208.777C181.049 209.451 179.793 209.287 179.119 208.411C178.446 207.536 178.61 206.28 179.485 205.607L184.033 202.109L179.486 198.614C178.61 197.941 178.446 196.686 179.119 195.81ZM169.071 216.141C169.745 217.016 169.581 218.272 168.705 218.945L155.486 229.113C154.611 229.787 153.355 229.623 152.682 228.747C152.008 227.872 152.172 226.616 153.048 225.943L166.266 215.775C167.142 215.101 168.398 215.265 169.071 216.141ZM270.08 221.885C271.172 222.046 271.927 223.063 271.766 224.155L269.624 238.659C269.462 239.751 268.446 240.506 267.353 240.345C266.26 240.184 265.505 239.167 265.667 238.074L267.809 223.571C267.97 222.478 268.987 221.723 270.08 221.885ZM227.72 223.707L225.964 235.552C225.802 236.645 224.785 237.399 223.692 237.237C222.599 237.075 221.845 236.058 222.007 234.965L222.312 232.908L220.582 234.238C219.706 234.911 218.45 234.746 217.777 233.871C217.104 232.995 217.268 231.739 218.144 231.066L227.72 223.707ZM142.633 236.476C143.307 237.352 143.143 238.608 142.267 239.281L129.048 249.449C128.173 250.122 126.917 249.959 126.244 249.083C125.57 248.208 125.734 246.952 126.61 246.278L139.829 236.111C140.704 235.437 141.96 235.601 142.633 236.476ZM209.642 240.122C210.315 240.998 210.151 242.253 209.275 242.926L197.968 251.615C197.093 252.288 195.837 252.124 195.164 251.248C194.491 250.372 194.655 249.116 195.531 248.443L206.838 239.755C207.714 239.082 208.969 239.246 209.642 240.122ZM222.217 247.182C223.31 247.344 224.064 248.361 223.902 249.454L221.84 263.356C221.678 264.448 220.661 265.203 219.568 265.041C218.476 264.878 217.721 263.861 217.883 262.769L219.945 248.867C220.107 247.774 221.124 247.02 222.217 247.182ZM265.795 250.891C266.888 251.053 267.643 252.069 267.482 253.162L265.339 267.665C265.178 268.758 264.161 269.513 263.069 269.352C261.976 269.19 261.221 268.174 261.382 267.081L263.525 252.578C263.686 251.485 264.703 250.73 265.795 250.891ZM116.195 256.812C116.869 257.688 116.705 258.944 115.83 259.617L110.802 263.484L116.23 270.575C116.901 271.452 116.734 272.708 115.857 273.379C114.98 274.05 113.725 273.884 113.053 273.007L105.2 262.747L113.391 256.446C114.266 255.773 115.522 255.937 116.195 256.812ZM187.029 257.499C187.702 258.375 187.538 259.631 186.662 260.304L175.355 268.992C174.479 269.665 173.224 269.501 172.551 268.625C171.878 267.749 172.042 266.494 172.918 265.821L184.225 257.132C185.1 256.459 186.356 256.623 187.029 257.499ZM164.416 274.876C165.089 275.752 164.924 277.008 164.049 277.681L152.742 286.37C151.866 287.043 150.611 286.878 149.938 286.002C149.265 285.127 149.429 283.871 150.305 283.198L161.611 274.509C162.487 273.836 163.743 274.001 164.416 274.876ZM218.093 274.986C219.186 275.148 219.94 276.165 219.778 277.257L217.716 291.159C217.554 292.252 216.537 293.006 215.445 292.844C214.352 292.682 213.598 291.665 213.76 290.572L215.822 276.671C215.984 275.578 217.001 274.824 218.093 274.986ZM261.511 279.898C262.604 280.059 263.359 281.076 263.197 282.169L261.055 296.672C260.894 297.765 259.877 298.52 258.784 298.358C257.692 298.197 256.937 297.18 257.098 296.088L259.24 281.584C259.402 280.491 260.418 279.736 261.511 279.898ZM126.707 287.553C127.584 286.882 128.84 287.049 129.511 287.926L134.934 295.01L138.998 291.887C139.874 291.214 141.13 291.378 141.803 292.254C142.476 293.13 142.311 294.385 141.435 295.058L134.193 300.624L126.335 290.357C125.663 289.48 125.83 288.225 126.707 287.553ZM213.97 302.789C215.062 302.951 215.817 303.968 215.655 305.061L214.917 310.034L223.744 311.344C224.836 311.507 225.59 312.524 225.428 313.616C225.266 314.709 224.249 315.463 223.156 315.301L210.374 313.403L211.698 304.474C211.86 303.382 212.877 302.627 213.97 302.789ZM257.227 308.905C258.319 309.066 259.074 310.083 258.913 311.175L257.549 320.407L244.765 318.509C243.673 318.347 242.918 317.33 243.081 316.237C243.243 315.144 244.26 314.39 245.353 314.552L254.177 315.863L254.956 310.591C255.117 309.498 256.134 308.743 257.227 308.905Z" fill="#6FC7BA"/>
</svg>
