<svg width="24" height="24" viewBox="0 0 24 24" fill="none" xmlns="http://www.w3.org/2000/svg">
<mask id="mask0_4723_1237" style="mask-type:alpha" maskUnits="userSpaceOnUse" x="0" y="0" width="24" height="24">
<rect width="24" height="24" fill="#D9D9D9"/>
</mask>
<g mask="url(#mask0_4723_1237)">
<path d="M12.0005 12C10.9005 12 9.95882 11.6083 9.17549 10.825C8.39216 10.0417 8.00049 9.1 8.00049 8C8.00049 6.9 8.39216 5.95833 9.17549 5.175C9.95882 4.39167 10.9005 4 12.0005 4C13.1005 4 14.0422 4.39167 14.8255 5.175C15.6088 5.95833 16.0005 6.9 16.0005 8C16.0005 9.1 15.6088 10.0417 14.8255 10.825C14.0422 11.6083 13.1005 12 12.0005 12ZM4.00049 20V17.2C4.00049 16.6333 4.14632 16.1125 4.43799 15.6375C4.72965 15.1625 5.11715 14.8 5.60049 14.55C6.63382 14.0333 7.68382 13.6458 8.75049 13.3875C9.81715 13.1292 10.9005 13 12.0005 13C13.1005 13 14.1838 13.1292 15.2505 13.3875C16.3172 13.6458 17.3672 14.0333 18.4005 14.55C18.8838 14.8 19.2713 15.1625 19.563 15.6375C19.8547 16.1125 20.0005 16.6333 20.0005 17.2V20H4.00049Z" fill="black"/>
</g>
</svg>
